<svg version="1.2" xmlns="http://www.w3.org/2000/svg" viewBox="0 0 962 962" width="962" height="962">
	<title>&lt;Compound Path&gt; copy</title>
	<style>
		.s0 { fill: #231f20 } 
	</style>
	<path id="&lt;Compound Path&gt; copy" fill-rule="evenodd" class="s0" d="m930.6 70.6v24.8h31.8v771.6h-31.8v24.8h31.8v70.8h-70.8v-31.9h-24.8v31.9h-771.6v-31.9h-24.8v31.9h-70.8v-70.8h31.9v-24.8h-31.9v-771.6h31.9v-24.8h-31.9v-70.8h70.8v31.9h24.8v-31.9h771.6v31.9h24.8v-31.9h70.8v70.8zm-31.8-38.9h31.8v31.8h24.8v-56.6h-56.6zm24.7 102.6h-95.5v-95.5h-693.8v95.5h-95.6v693.8h95.6v95.5h693.8v-95.5h95.5zm-56.6-95.6v24.8h24.8v-24.8zm24.8 821.2v-24.8h-56.7v56.6h24.8v-31.8zm38.9 38.9v31.9h-31.8v24.8h56.6v-56.7zm-38.9-31.8h-24.8v24.7h24.8zm-56.7 56.7h24.8v-24.8h-24.8zm63.8-63.7h24.7v-24.8h-24.7zm0-796.4h24.7v-24.8h-24.7zm-796.5 796.4v31.9h24.8v-56.6h-56.6v24.7zm-31.9 31.9h24.8v-24.8h-24.8zm-31.8-31.8h24.8v-24.8h-24.8zm63.7 38.9v24.8h24.8v-24.8zm-31.9-796.4v24.8h56.6v-56.6h-24.7v31.8zm-39-38.9v-31.9h31.9v-24.8h-56.6v56.7zm38.9 31.8h24.8v-24.7h-24.8zm56.6-56.7h-24.8v24.8h24.8zm-63.7 63.7h-24.8v24.8h24.8zm771.6-38.9h24.8v-24.8h-24.8zm88.5 38.9h-24.7v24.8h24.7zm-31.8 0h-31.9v-31.9h-24.8v56.7h56.7zm0-7.1v-24.8h-24.8v24.8zm-789.3-63.7h757.4v-24.8h-757.4zm-31.9 7.1v24.8h24.8v-24.8zm-7.1 0h-24.8v24.8h24.8zm-24.8 56.6h24.8v-24.8h-24.8zm-7 764.6v-757.5h-24.8v757.5zm7.1 31.8h24.7v-24.8h-24.7zm24.7 39h-31.8v-31.9h-24.8v56.7h56.6zm-24.7-7.1h24.7v-24.8h-24.7zm56.6 0v-24.8h-24.8v24.8zm764.6 7.1h-757.5v24.8h757.5zm31.8-7.1v-24.8h-24.8v24.8zm7.1 0h24.8v-24.8h-24.8zm24.8-56.6h-24.8v24.8h24.8zm7.1-764.6v757.5h24.8v-757.5zm-7.1-31.9h-24.8v24.8h24.8z"/>
</svg>